<svg id="Capa_1" data-name="Capa 1" xmlns="http://www.w3.org/2000/svg" viewBox="0 0 1317.04 242.84"><defs><style>.cls-1{fill:#fff;}</style></defs><path class="cls-1" d="M441.14,147.06c-.39.38-.81.72-1.22,1.08h33.36V132.43H450.43a36.32,36.32,0,0,1-3.08,6.77A35.94,35.94,0,0,1,441.14,147.06Z"/><path class="cls-1" d="M405.7,149h-.21v25.41H383.42V106a15.5,15.5,0,0,1,15.5-15.5H421A22.39,22.39,0,0,1,430.72,93a26.48,26.48,0,0,1,8,6.24,30,30,0,0,1,5.42,9.21,31.75,31.75,0,0,1,2,11.36,33.3,33.3,0,0,1-1.08,8.45,30.89,30.89,0,0,1-3.2,7.75,29.52,29.52,0,0,1-5.11,6.47,25.19,25.19,0,0,1-6.71,4.6l20,27.39H424.37Zm-.21-35.31v15.85h12.38a6.71,6.71,0,0,0,3.2-.82,9.58,9.58,0,0,0,2.73-2.15,10.15,10.15,0,0,0,1.86-3.09,10.28,10.28,0,0,0,.67-3.73,9.77,9.77,0,0,0-2.42-6.7,8.48,8.48,0,0,0-6-3h-8.76A3.62,3.62,0,0,0,405.49,113.73Z"/><path class="cls-1" d="M273.62,107.32H250.38a4.89,4.89,0,0,0-4.89,4.88v11.91h19.73V140.9H245.49v33.58H223.41V106a15.5,15.5,0,0,1,15.5-15.5h34.71Z"/><path class="cls-1" d="M325.73,90.53a42,42,0,1,0,42,42A42,42,0,0,0,325.73,90.53Zm0,62.91a20.93,20.93,0,1,1,20.92-20.93A20.93,20.93,0,0,1,325.73,153.44Z"/><path class="cls-1" d="M225.27,77.89v-15h9v1.8h-6.95v4.52h6.17V71h-6.17v6.91Z"/><path class="cls-1" d="M236,70.38a9.39,9.39,0,0,1,.57-3.4,6.87,6.87,0,0,1,1.56-2.45A6.48,6.48,0,0,1,240.43,63a7.78,7.78,0,0,1,2.78-.49A7.57,7.57,0,0,1,246,63a6.45,6.45,0,0,1,2.26,1.49A7.14,7.14,0,0,1,249.76,67a10.43,10.43,0,0,1,0,6.8,7.14,7.14,0,0,1-1.55,2.45A6.29,6.29,0,0,1,246,77.71a7.37,7.37,0,0,1-2.74.5,7.58,7.58,0,0,1-2.78-.5,6.32,6.32,0,0,1-2.29-1.48,6.87,6.87,0,0,1-1.56-2.45A9.39,9.39,0,0,1,236,70.38Zm2.2,0a8.4,8.4,0,0,0,.35,2.48,5.64,5.64,0,0,0,1,1.89A4.36,4.36,0,0,0,241.1,76a4.91,4.91,0,0,0,2.07.42,4.81,4.81,0,0,0,2.05-.42,4.24,4.24,0,0,0,1.55-1.2,5.65,5.65,0,0,0,1-1.89,9.21,9.21,0,0,0,0-5,5.65,5.65,0,0,0-1-1.89,4.24,4.24,0,0,0-1.55-1.2,4.81,4.81,0,0,0-2.05-.42,4.91,4.91,0,0,0-2.07.42,4.36,4.36,0,0,0-1.56,1.2,5.64,5.64,0,0,0-1,1.89A8.4,8.4,0,0,0,238.21,70.38Z"/><path class="cls-1" d="M260.78,71.61l.88,1.14c.35.47.71,1,1.09,1.56s.75,1.16,1.11,1.78a17.56,17.56,0,0,1,.95,1.8h-2.3c-.29-.55-.6-1.11-.94-1.67s-.68-1.1-1-1.61-.69-1-1-1.44-.65-.84-.92-1.17a5.52,5.52,0,0,1-.58,0h-2.48v5.87h-2.09V63.11a12.2,12.2,0,0,1,2-.29c.72,0,1.39-.08,2-.08a8.21,8.21,0,0,1,4.81,1.19,4.11,4.11,0,0,1,1.66,3.55,4.16,4.16,0,0,1-.79,2.55A4.64,4.64,0,0,1,260.78,71.61Zm-3.18-7c-.89,0-1.58,0-2.06.07v5.64H257a14.22,14.22,0,0,0,1.94-.11,4.25,4.25,0,0,0,1.47-.41,2.14,2.14,0,0,0,.91-.85,2.84,2.84,0,0,0,.33-1.46,2.78,2.78,0,0,0-.33-1.41,2.4,2.4,0,0,0-.87-.89,4.07,4.07,0,0,0-1.3-.45A9,9,0,0,0,257.6,64.58Z"/><path class="cls-1" d="M276.08,76.07v1.82h-9v-15h2.09V76.07Z"/><path class="cls-1" d="M276.71,70.38a9.39,9.39,0,0,1,.57-3.4,6.87,6.87,0,0,1,1.56-2.45A6.48,6.48,0,0,1,281.13,63a7.78,7.78,0,0,1,2.78-.49,7.57,7.57,0,0,1,2.74.49,6.45,6.45,0,0,1,2.26,1.49A7.14,7.14,0,0,1,290.46,67a10.43,10.43,0,0,1,0,6.8,7.14,7.14,0,0,1-1.55,2.45,6.29,6.29,0,0,1-2.26,1.48,7.37,7.37,0,0,1-2.74.5,7.58,7.58,0,0,1-2.78-.5,6.32,6.32,0,0,1-2.29-1.48,6.87,6.87,0,0,1-1.56-2.45A9.39,9.39,0,0,1,276.71,70.38Zm2.2,0a8.4,8.4,0,0,0,.35,2.48,5.64,5.64,0,0,0,1,1.89A4.36,4.36,0,0,0,281.8,76a4.91,4.91,0,0,0,2.07.42,4.81,4.81,0,0,0,2.05-.42,4.33,4.33,0,0,0,1.55-1.2,5.46,5.46,0,0,0,1-1.89,9,9,0,0,0,0-5,5.46,5.46,0,0,0-1-1.89,4.33,4.33,0,0,0-1.55-1.2,4.81,4.81,0,0,0-2.05-.42,4.91,4.91,0,0,0-2.07.42,4.36,4.36,0,0,0-1.56,1.2,5.64,5.64,0,0,0-1,1.89A8.4,8.4,0,0,0,278.91,70.38Z"/><path class="cls-1" d="M293.54,70.38a9.39,9.39,0,0,1,.57-3.4,6.87,6.87,0,0,1,1.56-2.45A6.57,6.57,0,0,1,298,63a7.82,7.82,0,0,1,2.78-.49,7.57,7.57,0,0,1,2.74.49,6.45,6.45,0,0,1,2.26,1.49A7,7,0,0,1,307.29,67a10.43,10.43,0,0,1,0,6.8,7,7,0,0,1-1.55,2.45,6.29,6.29,0,0,1-2.26,1.48,7.37,7.37,0,0,1-2.74.5,7.61,7.61,0,0,1-2.78-.5,6.41,6.41,0,0,1-2.29-1.48,6.87,6.87,0,0,1-1.56-2.45A9.39,9.39,0,0,1,293.54,70.38Zm2.21,0a8.4,8.4,0,0,0,.34,2.48,5.48,5.48,0,0,0,1,1.89,4.24,4.24,0,0,0,1.55,1.2,5,5,0,0,0,2.07.42,4.86,4.86,0,0,0,2.06-.42,4.29,4.29,0,0,0,1.54-1.2,5.48,5.48,0,0,0,1-1.89,9.21,9.21,0,0,0,0-5,5.48,5.48,0,0,0-1-1.89,4.29,4.29,0,0,0-1.54-1.2,4.86,4.86,0,0,0-2.06-.42,5,5,0,0,0-2.07.42,4.24,4.24,0,0,0-1.55,1.2,5.48,5.48,0,0,0-1,1.89A8.4,8.4,0,0,0,295.75,70.38Z"/><path class="cls-1" d="M315,62.74a8.37,8.37,0,0,1,4.86,1.2,4.11,4.11,0,0,1,1.7,3.58,4.85,4.85,0,0,1-.47,2.22,3.84,3.84,0,0,1-1.34,1.49,6.21,6.21,0,0,1-2.13.84,14.31,14.31,0,0,1-2.84.26h-1.66v5.56H311V63.11a12.2,12.2,0,0,1,2-.29C313.69,62.77,314.35,62.74,315,62.74Zm.17,1.84c-.89,0-1.58,0-2.05.07v5.88h1.58a12.52,12.52,0,0,0,1.94-.14,4.11,4.11,0,0,0,1.46-.48A2.26,2.26,0,0,0,319,69a3,3,0,0,0,.33-1.49,2.7,2.7,0,0,0-.34-1.43,2.43,2.43,0,0,0-.91-.89,3.81,3.81,0,0,0-1.33-.47A9,9,0,0,0,315.13,64.58Z"/><path class="cls-1" d="M526.69,107.22H507.25a4.89,4.89,0,0,0-4.89,4.88V124h15.93a3.8,3.8,0,0,1,3.8,3.8V137a3.8,3.8,0,0,1-3.8,3.8H502.36v33.58H480.28V105.93a15.5,15.5,0,0,1,15.5-15.5h30.91a3.8,3.8,0,0,1,3.8,3.8v9.19A3.8,3.8,0,0,1,526.69,107.22Z"/><path class="cls-1" d="M835.34,93.9v77a2.87,2.87,0,0,1-2.87,2.88H818a2.88,2.88,0,0,1-2.48-1.42l-27.08-45.94v44.48a2.88,2.88,0,0,1-2.88,2.88H772.34a2.88,2.88,0,0,1-2.88-2.88v-77A2.88,2.88,0,0,1,772.34,91h14.49a2.87,2.87,0,0,1,2.48,1.42L816.4,138.5V93.9A2.87,2.87,0,0,1,819.27,91h13.2A2.87,2.87,0,0,1,835.34,93.9Z"/><path class="cls-1" d="M643.2,93.9v77a2.88,2.88,0,0,1-2.88,2.88H625.89a2.85,2.85,0,0,1-2.47-1.42l-27.09-45.94v44.48a2.88,2.88,0,0,1-2.87,2.88H580.19a2.88,2.88,0,0,1-2.88-2.88v-77A2.88,2.88,0,0,1,580.19,91h14.5a2.88,2.88,0,0,1,2.48,1.42l27.08,46.06V93.9A2.88,2.88,0,0,1,627.13,91h13.19A2.88,2.88,0,0,1,643.2,93.9Z"/><path class="cls-1" d="M923.33,130.51H893v13.71H906.2a22.13,22.13,0,1,1-2.18-25h22.4a46,46,0,0,0-2.46-5.59,48.35,48.35,0,0,0-5.42-7.88,38.35,38.35,0,0,0-8-7.09,45.28,45.28,0,0,0-9.72-4.89,50.07,50.07,0,0,0-15.27-2.34A41.41,41.41,0,0,0,868,95.93a44,44,0,0,0-12,9.14,39.45,39.45,0,0,0-7.88,12.45,42.54,42.54,0,0,0-3.07,15.22A43.91,43.91,0,0,0,848,148.67a40.85,40.85,0,0,0,8.11,13,39.72,39.72,0,0,0,12.07,9.12,42,42,0,0,0,34.77,1.3,38,38,0,0,0,10.88-6.57,39.93,39.93,0,0,0,8-9.59l.07-.1a31.46,31.46,0,0,0,4.81-17v-5A3.33,3.33,0,0,0,923.33,130.51Z"/><path class="cls-1" d="M739.66,89.66h14.48a2.39,2.39,0,0,1,2.39,2.39v80.71a2.39,2.39,0,0,1-2.39,2.38H739.66a2.38,2.38,0,0,1-2.38-2.38V92.05A2.38,2.38,0,0,1,739.66,89.66Z"/><path class="cls-1" d="M545.87,89.66h14.48a2.38,2.38,0,0,1,2.38,2.39v80.71a2.38,2.38,0,0,1-2.38,2.38H545.87a2.38,2.38,0,0,1-2.38-2.38V92.05A2.38,2.38,0,0,1,545.87,89.66Z"/><path class="cls-1" d="M692,91.41a30.74,30.74,0,0,1,13.86,3.49,38.14,38.14,0,0,1,11.36,9,43.89,43.89,0,0,1,7.73,13.25,45.88,45.88,0,0,1,2.86,16.21A44.86,44.86,0,0,1,725.06,149a43.07,43.07,0,0,1-7.47,13,37.89,37.89,0,0,1-11.31,9.12,34.26,34.26,0,0,1-14.22,4l-31.27.11a3,3,0,0,1-3-3V94.52a3,3,0,0,1,3-3Zm-1.44,62.87a16.72,16.72,0,0,0,7-1.74,18.76,18.76,0,0,0,5.73-4.42,21.32,21.32,0,0,0,3.89-6.56,23,23,0,0,0,1.43-8.2,22.69,22.69,0,0,0-1.33-7.84,21.17,21.17,0,0,0-3.73-6.51,19.21,19.21,0,0,0-5.68-4.59,18.82,18.82,0,0,0-7.27-2.09H676.57v42Z"/><path class="cls-1" d="M1204.5,91a42.68,42.68,0,1,0,42.69,42.68A42.68,42.68,0,0,0,1204.5,91Zm0,64a21.27,21.27,0,1,1,21.28-21.27A21.27,21.27,0,0,1,1204.5,155Z"/><path class="cls-1" d="M1071.55,109.28v64a2.43,2.43,0,0,1-2.43,2.43h-17.27a2.42,2.42,0,0,1-2.42-2.43v-50l-12.91,43.18a12.94,12.94,0,0,1-12.4,9.24h0a13,13,0,0,1-12.4-9.24l-12.9-43.18v50a2.43,2.43,0,0,1-2.43,2.43H979.18a2.42,2.42,0,0,1-2.42-2.43V109.18A18.94,18.94,0,0,1,995.7,90.24h0a19,19,0,0,1,18.36,14.28l10,39.37,10-39.3a19,19,0,0,1,18.44-14.35h0A19,19,0,0,1,1071.55,109.28Z"/><path class="cls-1" d="M1110.32,150.52h-.21v23.42a2.42,2.42,0,0,1-2.42,2.43h-14.77a2.43,2.43,0,0,1-2.43-2.43V106.77A15.77,15.77,0,0,1,1106.26,91h19.59a22.79,22.79,0,0,1,9.92,2.49,26.78,26.78,0,0,1,8.13,6.34,30.51,30.51,0,0,1,5.51,9.37,32.17,32.17,0,0,1,2,11.56,34,34,0,0,1-1.1,8.59,31.12,31.12,0,0,1-3.26,7.89,29.9,29.9,0,0,1-5.19,6.58,25.86,25.86,0,0,1-6.82,4.68l17.54,24a2.43,2.43,0,0,1-2,3.86h-20.13a2.43,2.43,0,0,1-2-1Zm-.21-35.91v16.12h12.59a6.85,6.85,0,0,0,3.26-.84,9.76,9.76,0,0,0,2.78-2.19,10.36,10.36,0,0,0,1.89-3.14,10.61,10.61,0,0,0,.68-3.79,9.9,9.9,0,0,0-2.47-6.82,8.6,8.6,0,0,0-6.14-3h-8.91A3.68,3.68,0,0,0,1110.11,114.61Z"/><path class="cls-1" d="M189.46,154.15c-11.05-11-10.32-10.34-10.63-10.57L149.6,122l11.34-11.34a25.3,25.3,0,0,0,31.32-34.73,3.61,3.61,0,0,0-5.81-1l-9.35,9.35A3.61,3.61,0,0,1,172,79.17l9.35-9.35a3.61,3.61,0,0,0-1-5.81,25.3,25.3,0,0,0-34.73,31.32l-13.08,13.08c-2.66-2.07.85,1.46-24.22-25.13l2.62-2.62a3.62,3.62,0,0,0-.69-5.66L90.89,63.39A12.87,12.87,0,0,0,73.23,81.05L84.84,100.4a3.62,3.62,0,0,0,5.65.7L93,98.62c25,26.45,21.67,22.86,23.64,25.39l.15.17-11.6,11.6a25.3,25.3,0,0,0-31.33,34.73,3.62,3.62,0,0,0,5.82,1L89,162.16a3.61,3.61,0,1,1,5.11,5.11l-9.35,9.35a3.61,3.61,0,0,0,1,5.81,25.3,25.3,0,0,0,34.73-31.32l9.9-9.91,23.06,28c.18.22-.4-.38,9.91,9.94a19.41,19.41,0,0,0,13.65,5.7,17.32,17.32,0,0,0,10.15-3.2A18.1,18.1,0,0,0,189.46,154.15ZM95.68,91a3.62,3.62,0,0,0-5.19-.07l-1.83,1.83L79.43,77.33a5.64,5.64,0,0,1,7.74-7.74l15.38,9.23-1.84,1.84a3.61,3.61,0,0,0-.07,5c28.81,30.55,24.28,26,26.74,27.87L121.9,119C120,116.6,124.4,121.41,95.68,91Zm18,56.75a3.6,3.6,0,0,0-.71,4.11,18.07,18.07,0,0,1-16.33,25.86,17.83,17.83,0,0,1-2.53-.18l5.11-5.11a10.84,10.84,0,1,0-15.33-15.33l-5.11,5.11a18.07,18.07,0,0,1,25.67-18.86,3.63,3.63,0,0,0,4.12-.71l43.85-43.85a3.61,3.61,0,0,0,.71-4.12A18.07,18.07,0,0,1,172,69l-5.11,5.11a10.85,10.85,0,0,0,0,15.33,10.86,10.86,0,0,0,15.33,0l5.11-5.11a18.07,18.07,0,0,1-25.67,18.86,3.61,3.61,0,0,0-4.12.71Zm21.83-11.62,8.92-8.91,9.09,6.71-10.86,10.86C135.28,135.76,135.74,136.31,135.51,136.08Zm47.42,39.71c-4.21,3-10.43,2.29-14.46-1.74l-9.55-9.55-11.65-14.16,12.13-12.12,14.92,11,10,10A10.84,10.84,0,0,1,182.93,175.79Z"/></svg>