<svg id="Capa_1" data-name="Capa 1" xmlns="http://www.w3.org/2000/svg" viewBox="0 0 1280 260"><defs><style>.cls-1{fill:#93ce4c;}.cls-2{fill:#fff;}</style></defs><path class="cls-1" d="M422.62,155.64c-.39.38-.81.73-1.22,1.08h33.36V141H431.91a36.71,36.71,0,0,1-3.08,6.78A35.88,35.88,0,0,1,422.62,155.64Z"/><path class="cls-2" d="M387.18,157.63H387V183H364.9V114.62a15.5,15.5,0,0,1,15.5-15.5h22.05a22.53,22.53,0,0,1,9.75,2.44,26.48,26.48,0,0,1,8,6.24,30.12,30.12,0,0,1,5.42,9.21,31.79,31.79,0,0,1,2,11.36,33.24,33.24,0,0,1-1.08,8.45,30.74,30.74,0,0,1-3.2,7.75,29.52,29.52,0,0,1-5.11,6.47,25.22,25.22,0,0,1-6.71,4.61l20,27.38H405.85ZM387,122.32v15.84h12.38a6.82,6.82,0,0,0,3.2-.81,9.8,9.8,0,0,0,2.73-2.16,10,10,0,0,0,1.86-3.09,10.25,10.25,0,0,0,.67-3.73,9.78,9.78,0,0,0-2.42-6.7,8.52,8.52,0,0,0-6-3h-8.76A3.62,3.62,0,0,0,387,122.32Z"/><path class="cls-2" d="M255.1,115.9H231.86a4.89,4.89,0,0,0-4.89,4.89v11.9H246.7v16.79H227v33.58H204.89V114.61a15.5,15.5,0,0,1,15.5-15.5H255.1Z"/><path class="cls-2" d="M307.21,99.11a42,42,0,1,0,42,42A42,42,0,0,0,307.21,99.11Zm0,62.91a20.93,20.93,0,1,1,20.92-20.92A20.93,20.93,0,0,1,307.21,162Z"/><path class="cls-2" d="M206.75,86.47v-15h9.05v1.79h-7v4.52H215v1.78h-6.17v6.9Z"/><path class="cls-2" d="M217.49,79a9.43,9.43,0,0,1,.57-3.4,7,7,0,0,1,1.56-2.45,6.32,6.32,0,0,1,2.29-1.48,7.58,7.58,0,0,1,2.78-.5,7.37,7.37,0,0,1,2.74.5,6.29,6.29,0,0,1,2.26,1.48,7.23,7.23,0,0,1,1.55,2.45,10.43,10.43,0,0,1,0,6.8,7.14,7.14,0,0,1-1.55,2.45,6.45,6.45,0,0,1-2.26,1.49,7.57,7.57,0,0,1-2.74.49,7.78,7.78,0,0,1-2.78-.49,6.48,6.48,0,0,1-2.29-1.49,6.87,6.87,0,0,1-1.56-2.45A9.35,9.35,0,0,1,217.49,79Zm2.2,0a8.35,8.35,0,0,0,.35,2.48,5.64,5.64,0,0,0,1,1.89,4.36,4.36,0,0,0,1.56,1.2,4.91,4.91,0,0,0,2.07.43,4.82,4.82,0,0,0,2-.43,4.24,4.24,0,0,0,1.55-1.2,5.65,5.65,0,0,0,1-1.89,9.21,9.21,0,0,0,0-5,5.65,5.65,0,0,0-1-1.89,4.24,4.24,0,0,0-1.55-1.2,4.81,4.81,0,0,0-2-.42,4.91,4.91,0,0,0-2.07.42,4.36,4.36,0,0,0-1.56,1.2,5.64,5.64,0,0,0-1,1.89A8.4,8.4,0,0,0,219.69,79Z"/><path class="cls-2" d="M242.26,80.2c.23.28.52.66.88,1.13s.71,1,1.09,1.56.75,1.16,1.11,1.78a17.56,17.56,0,0,1,.95,1.8H244c-.29-.55-.6-1.1-.94-1.67s-.68-1.1-1-1.61-.69-1-1-1.44l-.92-1.17a5.49,5.49,0,0,1-.58,0H237v5.86h-2.09V71.69a12.2,12.2,0,0,1,2-.29c.72-.05,1.39-.08,2-.08a8.21,8.21,0,0,1,4.81,1.19,4.11,4.11,0,0,1,1.66,3.55,4.21,4.21,0,0,1-.79,2.56A4.77,4.77,0,0,1,242.26,80.2Zm-3.18-7c-.89,0-1.58,0-2.06.07v5.65h1.5a16,16,0,0,0,1.94-.11,4.48,4.48,0,0,0,1.47-.41,2.22,2.22,0,0,0,.91-.86,2.82,2.82,0,0,0,.33-1.46,2.78,2.78,0,0,0-.33-1.41,2.3,2.3,0,0,0-.87-.88,3.84,3.84,0,0,0-1.3-.46A10,10,0,0,0,239.08,73.16Z"/><path class="cls-2" d="M257.56,84.65v1.82h-9v-15h2.09V84.65Z"/><path class="cls-2" d="M258.19,79a9.43,9.43,0,0,1,.57-3.4,7,7,0,0,1,1.56-2.45,6.32,6.32,0,0,1,2.29-1.48,7.58,7.58,0,0,1,2.78-.5,7.37,7.37,0,0,1,2.74.5,6.29,6.29,0,0,1,2.26,1.48,7.23,7.23,0,0,1,1.55,2.45,10.43,10.43,0,0,1,0,6.8,7.14,7.14,0,0,1-1.55,2.45,6.45,6.45,0,0,1-2.26,1.49,7.57,7.57,0,0,1-2.74.49,7.78,7.78,0,0,1-2.78-.49,6.48,6.48,0,0,1-2.29-1.49,6.87,6.87,0,0,1-1.56-2.45A9.35,9.35,0,0,1,258.19,79Zm2.2,0a8.35,8.35,0,0,0,.35,2.48,5.64,5.64,0,0,0,1,1.89,4.36,4.36,0,0,0,1.56,1.2,4.91,4.91,0,0,0,2.07.43,4.82,4.82,0,0,0,2-.43,4.33,4.33,0,0,0,1.55-1.2,5.46,5.46,0,0,0,1-1.89,9,9,0,0,0,0-5,5.46,5.46,0,0,0-1-1.89,4.33,4.33,0,0,0-1.55-1.2,4.81,4.81,0,0,0-2-.42,4.91,4.91,0,0,0-2.07.42,4.36,4.36,0,0,0-1.56,1.2,5.64,5.64,0,0,0-1,1.89A8.4,8.4,0,0,0,260.39,79Z"/><path class="cls-2" d="M275,79a9.43,9.43,0,0,1,.57-3.4,7,7,0,0,1,1.56-2.45,6.41,6.41,0,0,1,2.29-1.48,7.61,7.61,0,0,1,2.78-.5,7.37,7.37,0,0,1,2.74.5,6.29,6.29,0,0,1,2.26,1.48,7.08,7.08,0,0,1,1.55,2.45,10.43,10.43,0,0,1,0,6.8,7,7,0,0,1-1.55,2.45A6.45,6.45,0,0,1,285,86.3a7.57,7.57,0,0,1-2.74.49,7.82,7.82,0,0,1-2.78-.49,6.57,6.57,0,0,1-2.29-1.49,6.87,6.87,0,0,1-1.56-2.45A9.35,9.35,0,0,1,275,79Zm2.21,0a8.36,8.36,0,0,0,.34,2.48,5.48,5.48,0,0,0,1,1.89,4.24,4.24,0,0,0,1.55,1.2,5,5,0,0,0,2.07.43,4.86,4.86,0,0,0,2.06-.43,4.29,4.29,0,0,0,1.54-1.2,5.48,5.48,0,0,0,1-1.89,9.21,9.21,0,0,0,0-5,5.48,5.48,0,0,0-1-1.89,4.29,4.29,0,0,0-1.54-1.2,4.86,4.86,0,0,0-2.06-.42,5,5,0,0,0-2.07.42,4.24,4.24,0,0,0-1.55,1.2,5.48,5.48,0,0,0-1,1.89A8.4,8.4,0,0,0,277.23,79Z"/><path class="cls-2" d="M296.44,71.32a8.37,8.37,0,0,1,4.86,1.2,4.13,4.13,0,0,1,1.7,3.59,4.84,4.84,0,0,1-.47,2.21,3.87,3.87,0,0,1-1.34,1.5,6.2,6.2,0,0,1-2.13.83,14.31,14.31,0,0,1-2.84.26h-1.66v5.56h-2.1V71.69a12.2,12.2,0,0,1,2-.29C295.17,71.35,295.83,71.32,296.44,71.32Zm.17,1.84c-.89,0-1.58,0-2.05.07v5.88h1.58a11.39,11.39,0,0,0,1.94-.14,4.32,4.32,0,0,0,1.46-.47,2.33,2.33,0,0,0,.92-.92,3,3,0,0,0,.33-1.5,2.67,2.67,0,0,0-.34-1.42,2.38,2.38,0,0,0-.91-.9,3.81,3.81,0,0,0-1.33-.47A10.06,10.06,0,0,0,296.61,73.16Z"/><path class="cls-1" d="M508.17,115.8H488.73a4.89,4.89,0,0,0-4.89,4.89v11.9h15.93a3.8,3.8,0,0,1,3.8,3.8v9.19a3.8,3.8,0,0,1-3.8,3.8H483.84V183H461.76V114.51A15.5,15.5,0,0,1,477.26,99h30.91a3.8,3.8,0,0,1,3.8,3.8V112A3.8,3.8,0,0,1,508.17,115.8Z"/><path class="cls-1" d="M816.82,102.48v77a2.87,2.87,0,0,1-2.87,2.88H799.52A2.88,2.88,0,0,1,797,181L770,135v44.48a2.88,2.88,0,0,1-2.88,2.88H753.82a2.88,2.88,0,0,1-2.88-2.88v-77a2.88,2.88,0,0,1,2.88-2.88h14.49a2.87,2.87,0,0,1,2.48,1.42l27.09,46.06v-44.6a2.87,2.87,0,0,1,2.87-2.88H814A2.87,2.87,0,0,1,816.82,102.48Z"/><path class="cls-1" d="M624.68,102.48v77a2.88,2.88,0,0,1-2.88,2.88H607.37A2.85,2.85,0,0,1,604.9,181L577.81,135v44.48a2.88,2.88,0,0,1-2.87,2.88H561.67a2.88,2.88,0,0,1-2.88-2.88v-77a2.88,2.88,0,0,1,2.88-2.88h14.5a2.88,2.88,0,0,1,2.48,1.42l27.08,46.06v-44.6a2.88,2.88,0,0,1,2.88-2.88H621.8A2.88,2.88,0,0,1,624.68,102.48Z"/><path class="cls-1" d="M904.81,139.09H874.5v13.72h13.18a22.13,22.13,0,1,1-2.18-25h22.4a46.68,46.68,0,0,0-2.46-5.59,48.35,48.35,0,0,0-5.42-7.88,38.35,38.35,0,0,0-8-7.09,44.81,44.81,0,0,0-9.72-4.88A49.75,49.75,0,0,0,867.07,100a41.55,41.55,0,0,0-17.61,4.51,44,44,0,0,0-12,9.14,39.45,39.45,0,0,0-7.88,12.45,42.58,42.58,0,0,0-3.07,15.22,44,44,0,0,0,2.91,15.94,40.8,40.8,0,0,0,8.11,13,39.72,39.72,0,0,0,12.07,9.12,42,42,0,0,0,34.77,1.3,38.24,38.24,0,0,0,10.88-6.56,40.32,40.32,0,0,0,8-9.59l.07-.11a31.44,31.44,0,0,0,4.81-17v-5A3.33,3.33,0,0,0,904.81,139.09Z"/><path class="cls-1" d="M721.14,98.25h14.48a2.39,2.39,0,0,1,2.39,2.38v80.71a2.38,2.38,0,0,1-2.39,2.38H721.14a2.37,2.37,0,0,1-2.38-2.38V100.63A2.38,2.38,0,0,1,721.14,98.25Z"/><path class="cls-1" d="M527.35,98.25h14.48a2.38,2.38,0,0,1,2.38,2.38v80.71a2.37,2.37,0,0,1-2.38,2.38H527.35a2.37,2.37,0,0,1-2.38-2.38V100.63A2.38,2.38,0,0,1,527.35,98.25Z"/><path class="cls-1" d="M673.44,100a30.74,30.74,0,0,1,13.86,3.49,38,38,0,0,1,11.36,9,43.83,43.83,0,0,1,7.73,13.24A45.9,45.9,0,0,1,709.25,142a44.9,44.9,0,0,1-2.71,15.63,42.9,42.9,0,0,1-7.47,13,37.89,37.89,0,0,1-11.31,9.12,34.27,34.27,0,0,1-14.22,4l-31.27.1a3,3,0,0,1-3-3V103.1a3,3,0,0,1,3-3ZM672,162.86a16.42,16.42,0,0,0,7-1.74,18.6,18.6,0,0,0,5.73-4.42,21.09,21.09,0,0,0,3.89-6.56A23,23,0,0,0,690,142a22.74,22.74,0,0,0-1.33-7.85,21.17,21.17,0,0,0-3.73-6.51,19.37,19.37,0,0,0-5.68-4.59,18.82,18.82,0,0,0-7.27-2.09h-14v42Z"/><path class="cls-1" d="M1186,99.59a42.68,42.68,0,1,0,42.69,42.68A42.68,42.68,0,0,0,1186,99.59Zm0,63.95a21.27,21.27,0,1,1,21.28-21.27A21.27,21.27,0,0,1,1186,163.54Z"/><path class="cls-1" d="M1053,117.86v64a2.43,2.43,0,0,1-2.43,2.43h-17.27a2.42,2.42,0,0,1-2.42-2.43v-50L1018,175.09a12.94,12.94,0,0,1-12.4,9.24h0a13,13,0,0,1-12.4-9.24l-12.9-43.18v50a2.43,2.43,0,0,1-2.43,2.43H960.66a2.42,2.42,0,0,1-2.42-2.43V117.77a18.94,18.94,0,0,1,18.94-19h0a19,19,0,0,1,18.36,14.28l10,39.37,10-39.3A19,19,0,0,1,1034,98.82h0A19,19,0,0,1,1053,117.86Z"/><path class="cls-1" d="M1091.8,159.11h-.21v23.42a2.42,2.42,0,0,1-2.42,2.42H1074.4a2.42,2.42,0,0,1-2.43-2.42V115.36a15.77,15.77,0,0,1,15.77-15.77h19.59a22.79,22.79,0,0,1,9.92,2.49,26.93,26.93,0,0,1,8.13,6.34,30.51,30.51,0,0,1,5.51,9.37,32.21,32.21,0,0,1,2,11.56,34,34,0,0,1-1.1,8.59,31.12,31.12,0,0,1-3.26,7.89,29.9,29.9,0,0,1-5.19,6.58,25.4,25.4,0,0,1-6.82,4.68l17.54,24a2.43,2.43,0,0,1-2,3.86H1112a2.43,2.43,0,0,1-2-1Zm-.21-35.92v16.12h12.59a7,7,0,0,0,3.26-.83,9.8,9.8,0,0,0,2.78-2.2,10.24,10.24,0,0,0,1.89-3.14,10.57,10.57,0,0,0,.68-3.79,9.9,9.9,0,0,0-2.47-6.82,8.68,8.68,0,0,0-6.14-3h-8.91A3.68,3.68,0,0,0,1091.59,123.19Z"/><path class="cls-2" d="M170.94,162.73c-11.05-11-10.32-10.34-10.63-10.57l-29.23-21.58,11.34-11.34a25.3,25.3,0,0,0,31.32-34.73,3.61,3.61,0,0,0-5.81-1l-9.35,9.35a3.61,3.61,0,1,1-5.11-5.11l9.35-9.35a3.61,3.61,0,0,0-1-5.81,25.3,25.3,0,0,0-34.73,31.32L114,117c-2.66-2.07.85,1.47-24.22-25.12l2.62-2.63a3.62,3.62,0,0,0-.69-5.66L72.37,72A12.87,12.87,0,0,0,54.71,89.63L66.32,109a3.61,3.61,0,0,0,5.65.7l2.48-2.48c25,26.45,21.67,22.86,23.64,25.39l.15.17-11.6,11.6a25.3,25.3,0,0,0-31.33,34.73,3.62,3.62,0,0,0,5.82,1l9.35-9.35a3.61,3.61,0,0,1,5.11,5.11l-9.35,9.35a3.61,3.61,0,0,0,1,5.81A25.3,25.3,0,0,0,102,159.69l9.9-9.9,23.06,28c.18.21-.4-.38,9.91,9.93a19.41,19.41,0,0,0,13.65,5.7,17.32,17.32,0,0,0,10.15-3.2A18.09,18.09,0,0,0,170.94,162.73ZM77.16,99.53A3.62,3.62,0,0,0,72,99.46l-1.83,1.84L60.91,85.91a5.64,5.64,0,0,1,7.74-7.74L84,87.4l-1.84,1.84a3.61,3.61,0,0,0-.07,5c28.81,30.55,24.28,26,26.74,27.87l-5.48,5.48C101.48,125.19,105.88,130,77.16,99.53Zm18,56.75a3.61,3.61,0,0,0-.71,4.12,18.07,18.07,0,0,1-16.33,25.85,17.83,17.83,0,0,1-2.53-.18L80.7,181a10.84,10.84,0,0,0-15.33-15.33l-5.11,5.11a18.07,18.07,0,0,1,25.67-18.86,3.62,3.62,0,0,0,4.12-.71l43.85-43.85a3.6,3.6,0,0,0,.71-4.11,18.07,18.07,0,0,1,18.86-25.68l-5.11,5.11A10.84,10.84,0,1,0,163.69,98l5.11-5.11a18.07,18.07,0,0,1-25.67,18.86,3.63,3.63,0,0,0-4.12.71ZM117,144.67l8.92-8.92,9.09,6.71-10.86,10.86C116.76,144.35,117.22,144.89,117,144.67Zm47.42,39.7c-4.21,3-10.43,2.29-14.46-1.74l-9.55-9.55-11.65-14.15,12.13-12.13,14.92,11,10,10A10.84,10.84,0,0,1,164.41,184.37Z"/></svg>