<svg width="15" height="15" viewBox="0 0 15 15" fill="none" xmlns="http://www.w3.org/2000/svg">
<g clip-path="url(#clip0)">
<path d="M11.2498 9.36518V10.4942C11.2502 10.5991 11.2287 10.7028 11.1866 10.7989C11.1445 10.8949 11.0828 10.9811 11.0054 11.0519C10.928 11.1228 10.8367 11.1767 10.7372 11.2103C10.6377 11.2439 10.5323 11.2564 10.4277 11.2469C9.2673 11.1211 8.15265 10.7254 7.17334 10.0916C6.26221 9.51375 5.48972 8.74275 4.91075 7.83345C4.27345 6.85162 3.87684 5.73378 3.75306 4.57048C3.74364 4.46641 3.75603 4.36152 3.78945 4.26248C3.82287 4.16345 3.87658 4.07245 3.94717 3.99527C4.01777 3.9181 4.10368 3.85643 4.19947 3.81421C4.29524 3.77199 4.39878 3.75013 4.50349 3.75004H5.63478C5.81779 3.74824 5.99521 3.81292 6.13396 3.93202C6.27273 4.05111 6.36336 4.2165 6.38897 4.39736C6.43672 4.75868 6.52528 5.11345 6.65294 5.45491C6.70368 5.58961 6.71466 5.73601 6.68458 5.87675C6.65451 6.01749 6.58464 6.14668 6.48325 6.24901L6.00433 6.72697C6.54115 7.6692 7.32284 8.44935 8.26695 8.98507L8.74582 8.5071C8.84835 8.40592 8.9778 8.33617 9.1188 8.30617C9.25987 8.27617 9.40657 8.28712 9.5415 8.33775C9.88365 8.46517 10.2391 8.55352 10.6012 8.60122C10.7843 8.62702 10.9516 8.71905 11.0712 8.85997C11.1908 9.00082 11.2543 9.1806 11.2498 9.36518Z" fill="white"/>
<path d="M14.625 7.5C14.625 11.435 11.435 14.625 7.5 14.625C3.56497 14.625 0.375 11.435 0.375 7.5C0.375 3.56497 3.56497 0.375 7.5 0.375C11.435 0.375 14.625 3.56497 14.625 7.5Z" stroke="white"/>
</g>
<defs>
<clipPath id="clip0">
<rect width="15" height="15" fill="white"/>
</clipPath>
</defs>
</svg>
