<svg width="18" height="16" viewBox="0 0 18 16" fill="none" xmlns="http://www.w3.org/2000/svg">
<path d="M15 6L11.4284 6L8.14402 0.251875C8.10022 0.175346 8.03698 0.111747 7.9607 0.0675164C7.88443 0.023286 7.79781 -5.52896e-06 7.70964 9.84477e-10L5.66276 9.84477e-10C5.33057 9.84477e-10 5.09088 0.317812 5.18213 0.637187L6.71432 6H3.49993L2.14993 4.2C2.05555 4.07406 1.90711 4 1.74993 4H0.500232C0.174918 4 -0.0638331 4.30562 0.0152297 4.62125L0.999922 8L0.0152297 11.3787C-0.0638331 11.6944 0.174918 12 0.500232 12H1.74993C1.90743 12 2.05555 11.9259 2.14993 11.8L3.49993 10L6.71432 10L5.18213 15.3625C5.09088 15.6819 5.33057 16 5.66276 16H7.70964C7.88902 16 8.05464 15.9038 8.1437 15.7481L11.4284 10H15C16.1047 10 18 9.10469 18 8C18 6.89531 16.1047 6 15 6Z" fill="#106EB7"/>
</svg>
