<svg width="16" height="18" viewBox="0 0 16 18" fill="none" xmlns="http://www.w3.org/2000/svg">
<path d="M6 3.00001L6 6.57159L0.251875 9.85598C0.175346 9.89978 0.111747 9.96302 0.0675161 10.0393C0.0232856 10.1156 -5.86982e-06 10.2022 -3.36015e-07 10.2904L-2.46542e-07 12.3372C-2.32022e-07 12.6694 0.317812 12.9091 0.637187 12.8179L6 11.2857L6 14.5001L4.2 15.8501C4.07406 15.9444 4 16.0929 4 16.2501L4 17.4998C4 17.8251 4.30562 18.0638 4.62125 17.9848L8 17.0001L11.3787 17.9848C11.6944 18.0638 12 17.8251 12 17.4998L12 16.2501C12 16.0926 11.9259 15.9444 11.8 15.8501L10 14.5001L10 11.2857L15.3625 12.8179C15.6819 12.9091 16 12.6694 16 12.3372L16 10.2904C16 10.111 15.9038 9.94536 15.7481 9.85629L10 6.57159L10 3.00001C10 1.89532 9.10469 -3.97979e-07 8 -3.49691e-07C6.89531 -3.01404e-07 6 1.89532 6 3.00001Z" fill="#585858"/>
</svg>
