<svg width="15" height="15" viewBox="0 0 15 15" fill="none" xmlns="http://www.w3.org/2000/svg">
<path d="M13.6816 2H1.31836C0.592324 2 0 2.56492 0 3.25874V11.6503C0 12.3418 0.589688 12.9091 1.31836 12.9091H13.6816C14.4059 12.9091 15 12.346 15 11.6503V3.25874C15 2.56727 14.4103 2 13.6816 2ZM13.4996 2.83916L7.52795 8.54078L1.50466 2.83916H13.4996ZM0.878905 11.4766V3.4285L5.11169 7.43522L0.878905 11.4766ZM1.50038 12.0699L5.73583 8.02601L7.21991 9.4308C7.39173 9.59348 7.66895 9.59293 7.84002 9.42957L9.28711 8.04792L13.4996 12.0699H1.50038ZM14.1211 11.4766L9.90859 7.45455L14.1211 3.43251V11.4766Z" fill="white"/>
</svg>
